<svg width="655" height="586" viewBox="0 0 655 586" fill="none" xmlns="http://www.w3.org/2000/svg">
<path d="M0 0H655V586H0V0Z" fill="url(#paint0_linear_779_1658)"/>
<g opacity="0.1" filter="url(#filter0_f_779_1658)">
<path d="M600.942 132.385L595.905 159.636L574.823 141.649L600.942 132.385Z" fill="#D9D9D9"/>
</g>
<g opacity="0.1" filter="url(#filter1_f_779_1658)">
<path d="M65.9416 462.385L60.9054 489.636L39.8231 471.649L65.9416 462.385Z" fill="#D9D9D9"/>
</g>
<g opacity="0.1" filter="url(#filter2_f_779_1658)">
<path d="M86.9416 71.3849L81.9054 98.6363L60.8231 80.6491L86.9416 71.3849Z" fill="#D9D9D9"/>
</g>
<g opacity="0.1" filter="url(#filter3_f_779_1658)">
<path d="M543.249 444.627L560.708 453.577C568.572 457.608 571.679 467.25 567.648 475.114L558.698 492.574L540.348 483.168C532.976 479.389 530.063 470.349 533.842 462.977L543.249 444.627Z" fill="#D9D9D9"/>
</g>
<g opacity="0.1" filter="url(#filter4_f_779_1658)">
<path d="M552 441.782L571.509 439.699C580.296 438.761 588.179 445.123 589.118 453.909L591.201 473.419L570.697 475.608C562.46 476.488 555.069 470.523 554.189 462.285L552 441.782Z" fill="#D9D9D9"/>
</g>
<g opacity="0.1" filter="url(#filter5_f_779_1658)">
<path d="M94.0015 226.648L78.1411 167.456C75.854 158.921 80.9193 150.148 89.4548 147.86L148.647 132L164.766 192.158C166.91 200.16 162.161 208.385 154.159 210.529L94.0015 226.648Z" fill="#D9D9D9"/>
</g>
<g opacity="0.1" filter="url(#filter6_f_779_1658)">
<path d="M517.798 93.1678L515.141 83.2527C512.854 74.7172 517.919 65.9438 526.455 63.6567L536.37 61L539.286 71.881C541.43 79.883 536.681 88.1081 528.679 90.2522L517.798 93.1678Z" fill="#D9D9D9"/>
</g>
<path d="M234.856 390.816C234.773 390.041 234.423 389.437 233.808 389.005C233.198 388.573 232.405 388.357 231.429 388.357C230.742 388.357 230.153 388.461 229.662 388.668C229.171 388.875 228.795 389.156 228.534 389.511C228.274 389.866 228.141 390.272 228.135 390.728C228.135 391.106 228.221 391.435 228.392 391.713C228.57 391.991 228.81 392.228 229.112 392.423C229.413 392.613 229.748 392.772 230.115 392.903C230.482 393.033 230.852 393.142 231.224 393.231L232.929 393.657C233.616 393.817 234.275 394.033 234.909 394.305C235.548 394.578 236.119 394.921 236.622 395.335C237.131 395.75 237.534 396.25 237.83 396.836C238.126 397.422 238.273 398.108 238.273 398.895C238.273 399.961 238.001 400.899 237.457 401.71C236.912 402.514 236.125 403.145 235.095 403.6C234.071 404.05 232.831 404.275 231.375 404.275C229.961 404.275 228.733 404.056 227.691 403.618C226.655 403.18 225.845 402.541 225.259 401.701C224.679 400.86 224.365 399.836 224.318 398.629H227.558C227.605 399.262 227.801 399.789 228.144 400.209C228.487 400.629 228.934 400.943 229.484 401.15C230.041 401.357 230.662 401.461 231.349 401.461C232.065 401.461 232.692 401.354 233.231 401.141C233.775 400.922 234.202 400.621 234.509 400.236C234.817 399.845 234.974 399.389 234.98 398.869C234.974 398.395 234.835 398.004 234.563 397.697C234.29 397.383 233.909 397.123 233.417 396.915C232.932 396.702 232.364 396.513 231.713 396.347L229.644 395.815C228.147 395.43 226.963 394.847 226.093 394.066C225.229 393.279 224.797 392.234 224.797 390.932C224.797 389.861 225.087 388.922 225.667 388.118C226.253 387.313 227.049 386.688 228.055 386.244C229.061 385.795 230.201 385.57 231.473 385.57C232.763 385.57 233.894 385.795 234.864 386.244C235.841 386.688 236.607 387.307 237.164 388.1C237.72 388.887 238.007 389.792 238.025 390.816H234.856ZM247.105 404.266C245.738 404.266 244.557 403.982 243.562 403.414C242.574 402.84 241.814 402.029 241.281 400.982C240.748 399.928 240.482 398.688 240.482 397.262C240.482 395.859 240.748 394.628 241.281 393.569C241.819 392.503 242.571 391.675 243.536 391.083C244.501 390.485 245.634 390.186 246.936 390.186C247.776 390.186 248.57 390.322 249.315 390.594C250.067 390.861 250.73 391.275 251.304 391.837C251.884 392.4 252.34 393.116 252.671 393.986C253.003 394.85 253.168 395.88 253.168 397.075V398.061H241.991V395.895H250.088C250.082 395.279 249.949 394.732 249.688 394.252C249.428 393.767 249.064 393.385 248.596 393.107C248.135 392.829 247.596 392.69 246.98 392.69C246.323 392.69 245.746 392.849 245.249 393.169C244.752 393.483 244.364 393.897 244.086 394.412C243.814 394.921 243.675 395.48 243.669 396.09V397.981C243.669 398.774 243.814 399.455 244.104 400.023C244.394 400.585 244.799 401.017 245.32 401.319C245.841 401.615 246.451 401.763 247.149 401.763C247.617 401.763 248.04 401.698 248.419 401.567C248.797 401.431 249.126 401.233 249.404 400.973C249.682 400.712 249.892 400.39 250.034 400.005L253.035 400.342C252.846 401.135 252.485 401.828 251.952 402.42C251.425 403.006 250.751 403.461 249.928 403.787C249.105 404.107 248.164 404.266 247.105 404.266ZM259.101 385.818V404H255.887V385.818H259.101ZM266.33 404.275C265.466 404.275 264.687 404.121 263.995 403.814C263.308 403.5 262.764 403.038 262.361 402.429C261.965 401.819 261.766 401.067 261.766 400.174C261.766 399.404 261.909 398.768 262.193 398.265C262.477 397.762 262.864 397.359 263.356 397.058C263.847 396.756 264.4 396.528 265.016 396.374C265.637 396.214 266.279 396.099 266.942 396.028C267.741 395.945 268.389 395.871 268.886 395.806C269.384 395.735 269.745 395.628 269.97 395.486C270.2 395.338 270.316 395.11 270.316 394.803V394.749C270.316 394.08 270.118 393.563 269.721 393.196C269.324 392.829 268.753 392.645 268.008 392.645C267.22 392.645 266.596 392.817 266.134 393.16C265.679 393.503 265.371 393.909 265.211 394.376L262.21 393.95C262.447 393.122 262.838 392.429 263.382 391.873C263.927 391.311 264.593 390.89 265.38 390.612C266.167 390.328 267.037 390.186 267.99 390.186C268.647 390.186 269.301 390.263 269.952 390.417C270.603 390.571 271.198 390.825 271.736 391.18C272.275 391.53 272.707 392.006 273.032 392.61C273.364 393.213 273.53 393.968 273.53 394.874V404H270.44V402.127H270.334C270.138 402.506 269.863 402.861 269.508 403.192C269.159 403.518 268.718 403.781 268.185 403.982C267.658 404.178 267.04 404.275 266.33 404.275ZM267.164 401.914C267.809 401.914 268.369 401.786 268.842 401.532C269.316 401.272 269.68 400.928 269.934 400.502C270.194 400.076 270.325 399.611 270.325 399.108V397.501C270.224 397.584 270.052 397.661 269.81 397.732C269.573 397.803 269.307 397.865 269.011 397.919C268.715 397.972 268.422 398.019 268.132 398.061C267.842 398.102 267.59 398.138 267.377 398.167C266.898 398.232 266.469 398.339 266.09 398.487C265.711 398.635 265.412 398.842 265.193 399.108C264.974 399.369 264.865 399.706 264.865 400.12C264.865 400.712 265.081 401.159 265.513 401.461C265.945 401.763 266.495 401.914 267.164 401.914ZM276.761 404V390.364H279.833V392.681H279.993C280.277 391.9 280.747 391.29 281.404 390.852C282.061 390.408 282.845 390.186 283.757 390.186C284.68 390.186 285.458 390.411 286.092 390.861C286.731 391.305 287.181 391.911 287.441 392.681H287.583C287.885 391.923 288.394 391.319 289.11 390.87C289.832 390.414 290.688 390.186 291.676 390.186C292.931 390.186 293.955 390.583 294.748 391.376C295.541 392.169 295.937 393.326 295.937 394.847V404H292.715V395.344C292.715 394.498 292.49 393.879 292.04 393.489C291.59 393.092 291.04 392.894 290.389 392.894C289.613 392.894 289.007 393.136 288.569 393.622C288.137 394.101 287.921 394.726 287.921 395.495V404H284.769V395.211C284.769 394.507 284.556 393.944 284.13 393.524C283.71 393.104 283.159 392.894 282.478 392.894C282.017 392.894 281.597 393.012 281.218 393.249C280.839 393.48 280.537 393.808 280.312 394.234C280.087 394.655 279.975 395.146 279.975 395.708V404H276.761ZM303.122 404.275C302.258 404.275 301.479 404.121 300.787 403.814C300.1 403.5 299.556 403.038 299.153 402.429C298.757 401.819 298.558 401.067 298.558 400.174C298.558 399.404 298.701 398.768 298.985 398.265C299.269 397.762 299.656 397.359 300.148 397.058C300.639 396.756 301.192 396.528 301.808 396.374C302.429 396.214 303.071 396.099 303.734 396.028C304.533 395.945 305.181 395.871 305.678 395.806C306.176 395.735 306.537 395.628 306.762 395.486C306.992 395.338 307.108 395.11 307.108 394.803V394.749C307.108 394.08 306.91 393.563 306.513 393.196C306.116 392.829 305.545 392.645 304.8 392.645C304.012 392.645 303.388 392.817 302.926 393.16C302.471 393.503 302.163 393.909 302.003 394.376L299.002 393.95C299.239 393.122 299.63 392.429 300.174 391.873C300.719 391.311 301.385 390.89 302.172 390.612C302.959 390.328 303.829 390.186 304.782 390.186C305.439 390.186 306.093 390.263 306.744 390.417C307.395 390.571 307.99 390.825 308.528 391.18C309.067 391.53 309.499 392.006 309.824 392.61C310.156 393.213 310.322 393.968 310.322 394.874V404H307.232V402.127H307.126C306.93 402.506 306.655 402.861 306.3 403.192C305.951 403.518 305.51 403.781 304.977 403.982C304.45 404.178 303.832 404.275 303.122 404.275ZM303.956 401.914C304.601 401.914 305.161 401.786 305.634 401.532C306.108 401.272 306.472 400.928 306.726 400.502C306.986 400.076 307.117 399.611 307.117 399.108V397.501C307.016 397.584 306.844 397.661 306.602 397.732C306.365 397.803 306.099 397.865 305.803 397.919C305.507 397.972 305.214 398.019 304.924 398.061C304.634 398.102 304.382 398.138 304.169 398.167C303.69 398.232 303.261 398.339 302.882 398.487C302.503 398.635 302.204 398.842 301.985 399.108C301.766 399.369 301.657 399.706 301.657 400.12C301.657 400.712 301.873 401.159 302.305 401.461C302.737 401.763 303.287 401.914 303.956 401.914ZM320.362 390.364V392.849H312.523V390.364H320.362ZM314.459 387.097H317.672V399.898C317.672 400.33 317.738 400.662 317.868 400.893C318.004 401.118 318.181 401.272 318.4 401.354C318.619 401.437 318.862 401.479 319.128 401.479C319.33 401.479 319.513 401.464 319.679 401.434C319.85 401.405 319.981 401.378 320.069 401.354L320.611 403.867C320.439 403.926 320.194 403.991 319.874 404.062C319.56 404.133 319.176 404.175 318.72 404.186C317.915 404.21 317.19 404.089 316.545 403.822C315.9 403.55 315.388 403.13 315.009 402.562C314.636 401.994 314.453 401.283 314.459 400.431V387.097ZM335.555 404H329.393V385.818H335.679C337.484 385.818 339.035 386.182 340.331 386.91C341.633 387.632 342.633 388.671 343.332 390.026C344.03 391.382 344.379 393.003 344.379 394.891C344.379 396.785 344.027 398.413 343.323 399.774C342.624 401.135 341.615 402.18 340.295 402.908C338.981 403.636 337.401 404 335.555 404ZM332.687 401.15H335.395C336.661 401.15 337.718 400.919 338.564 400.458C339.411 399.99 340.047 399.295 340.473 398.371C340.899 397.442 341.112 396.282 341.112 394.891C341.112 393.5 340.899 392.346 340.473 391.429C340.047 390.506 339.417 389.816 338.582 389.36C337.753 388.899 336.724 388.668 335.492 388.668H332.687V401.15ZM351.291 404.275C350.427 404.275 349.648 404.121 348.956 403.814C348.269 403.5 347.725 403.038 347.322 402.429C346.926 401.819 346.727 401.067 346.727 400.174C346.727 399.404 346.869 398.768 347.154 398.265C347.438 397.762 347.825 397.359 348.317 397.058C348.808 396.756 349.361 396.528 349.977 396.374C350.598 396.214 351.24 396.099 351.903 396.028C352.702 395.945 353.35 395.871 353.847 395.806C354.345 395.735 354.706 395.628 354.931 395.486C355.161 395.338 355.277 395.11 355.277 394.803V394.749C355.277 394.08 355.078 393.563 354.682 393.196C354.285 392.829 353.714 392.645 352.969 392.645C352.181 392.645 351.557 392.817 351.095 393.16C350.64 393.503 350.332 393.909 350.172 394.376L347.171 393.95C347.408 393.122 347.799 392.429 348.343 391.873C348.888 391.311 349.554 390.89 350.341 390.612C351.128 390.328 351.998 390.186 352.951 390.186C353.608 390.186 354.262 390.263 354.913 390.417C355.564 390.571 356.159 390.825 356.697 391.18C357.236 391.53 357.668 392.006 357.993 392.61C358.325 393.213 358.491 393.968 358.491 394.874V404H355.401V402.127H355.295C355.099 402.506 354.824 402.861 354.469 403.192C354.12 403.518 353.679 403.781 353.146 403.982C352.619 404.178 352.001 404.275 351.291 404.275ZM352.125 401.914C352.77 401.914 353.33 401.786 353.803 401.532C354.277 401.272 354.641 400.928 354.895 400.502C355.155 400.076 355.286 399.611 355.286 399.108V397.501C355.185 397.584 355.013 397.661 354.771 397.732C354.534 397.803 354.268 397.865 353.972 397.919C353.676 397.972 353.383 398.019 353.093 398.061C352.803 398.102 352.551 398.138 352.338 398.167C351.859 398.232 351.43 398.339 351.051 398.487C350.672 398.635 350.373 398.842 350.154 399.108C349.935 399.369 349.826 399.706 349.826 400.12C349.826 400.712 350.042 401.159 350.474 401.461C350.906 401.763 351.456 401.914 352.125 401.914ZM368.531 390.364V392.849H360.692V390.364H368.531ZM362.628 387.097H365.841V399.898C365.841 400.33 365.907 400.662 366.037 400.893C366.173 401.118 366.35 401.272 366.569 401.354C366.788 401.437 367.031 401.479 367.297 401.479C367.499 401.479 367.682 401.464 367.848 401.434C368.019 401.405 368.15 401.378 368.238 401.354L368.78 403.867C368.608 403.926 368.363 403.991 368.043 404.062C367.729 404.133 367.345 404.175 366.889 404.186C366.084 404.21 365.359 404.089 364.714 403.822C364.069 403.55 363.557 403.13 363.178 402.562C362.805 401.994 362.622 401.283 362.628 400.431V387.097ZM375.143 404.275C374.279 404.275 373.501 404.121 372.808 403.814C372.122 403.5 371.577 403.038 371.175 402.429C370.778 401.819 370.58 401.067 370.58 400.174C370.58 399.404 370.722 398.768 371.006 398.265C371.29 397.762 371.678 397.359 372.169 397.058C372.66 396.756 373.214 396.528 373.829 396.374C374.451 396.214 375.093 396.099 375.756 396.028C376.555 395.945 377.203 395.871 377.7 395.806C378.197 395.735 378.558 395.628 378.783 395.486C379.014 395.338 379.129 395.11 379.129 394.803V394.749C379.129 394.08 378.931 393.563 378.534 393.196C378.138 392.829 377.567 392.645 376.821 392.645C376.034 392.645 375.409 392.817 374.948 393.16C374.492 393.503 374.184 393.909 374.025 394.376L371.024 393.95C371.261 393.122 371.651 392.429 372.196 391.873C372.74 391.311 373.406 390.89 374.193 390.612C374.98 390.328 375.85 390.186 376.803 390.186C377.46 390.186 378.114 390.263 378.765 390.417C379.416 390.571 380.011 390.825 380.55 391.18C381.088 391.53 381.52 392.006 381.846 392.61C382.177 393.213 382.343 393.968 382.343 394.874V404H379.254V402.127H379.147C378.952 402.506 378.677 402.861 378.321 403.192C377.972 403.518 377.531 403.781 376.999 403.982C376.472 404.178 375.853 404.275 375.143 404.275ZM375.978 401.914C376.623 401.914 377.182 401.786 377.656 401.532C378.129 401.272 378.493 400.928 378.748 400.502C379.008 400.076 379.138 399.611 379.138 399.108V397.501C379.038 397.584 378.866 397.661 378.623 397.732C378.387 397.803 378.12 397.865 377.824 397.919C377.528 397.972 377.235 398.019 376.945 398.061C376.655 398.102 376.404 398.138 376.191 398.167C375.711 398.232 375.282 398.339 374.903 398.487C374.525 398.635 374.226 398.842 374.007 399.108C373.788 399.369 373.678 399.706 373.678 400.12C373.678 400.712 373.894 401.159 374.326 401.461C374.758 401.763 375.309 401.914 375.978 401.914ZM388.788 396.01V404H385.575V390.364H388.646V392.681H388.806C389.12 391.917 389.62 391.311 390.307 390.861C390.999 390.411 391.854 390.186 392.872 390.186C393.813 390.186 394.633 390.387 395.331 390.79C396.036 391.192 396.58 391.775 396.965 392.539C397.356 393.302 397.548 394.228 397.542 395.317V404H394.328V395.815C394.328 394.903 394.091 394.19 393.618 393.675C393.15 393.16 392.502 392.903 391.674 392.903C391.111 392.903 390.611 393.027 390.173 393.276C389.741 393.518 389.401 393.87 389.152 394.332C388.91 394.794 388.788 395.353 388.788 396.01ZM406.739 409.398C405.585 409.398 404.594 409.241 403.765 408.927C402.937 408.619 402.271 408.205 401.768 407.684C401.265 407.163 400.916 406.586 400.72 405.953L403.614 405.252C403.745 405.518 403.934 405.781 404.183 406.042C404.431 406.308 404.766 406.527 405.186 406.699C405.612 406.876 406.148 406.965 406.793 406.965C407.704 406.965 408.459 406.743 409.057 406.299C409.654 405.861 409.953 405.139 409.953 404.133V401.55H409.793C409.628 401.881 409.385 402.221 409.065 402.571C408.752 402.92 408.334 403.213 407.814 403.45C407.299 403.686 406.651 403.805 405.869 403.805C404.822 403.805 403.872 403.559 403.02 403.068C402.173 402.571 401.499 401.831 400.995 400.848C400.498 399.86 400.25 398.623 400.25 397.137C400.25 395.64 400.498 394.376 400.995 393.347C401.499 392.311 402.176 391.527 403.028 390.994C403.881 390.455 404.831 390.186 405.878 390.186C406.677 390.186 407.334 390.322 407.849 390.594C408.37 390.861 408.784 391.183 409.092 391.562C409.4 391.935 409.634 392.287 409.793 392.619H409.971V390.364H413.14V404.222C413.14 405.388 412.862 406.353 412.306 407.116C411.749 407.88 410.989 408.451 410.024 408.83C409.059 409.208 407.965 409.398 406.739 409.398ZM406.766 401.283C407.447 401.283 408.027 401.118 408.506 400.786C408.985 400.455 409.349 399.978 409.598 399.357C409.847 398.735 409.971 397.99 409.971 397.12C409.971 396.261 409.847 395.51 409.598 394.865C409.355 394.22 408.994 393.719 408.515 393.364C408.041 393.003 407.458 392.823 406.766 392.823C406.05 392.823 405.452 393.009 404.973 393.382C404.493 393.755 404.132 394.267 403.89 394.918C403.647 395.563 403.526 396.297 403.526 397.12C403.526 397.954 403.647 398.685 403.89 399.312C404.138 399.934 404.502 400.419 404.982 400.768C405.467 401.112 406.062 401.283 406.766 401.283ZM428.938 404H422.777V385.818H429.063C430.868 385.818 432.419 386.182 433.715 386.91C435.017 387.632 436.017 388.671 436.715 390.026C437.414 391.382 437.763 393.003 437.763 394.891C437.763 396.785 437.411 398.413 436.707 399.774C436.008 401.135 434.999 402.18 433.679 402.908C432.365 403.636 430.785 404 428.938 404ZM426.071 401.15H428.779C430.045 401.15 431.102 400.919 431.948 400.458C432.794 399.99 433.431 399.295 433.857 398.371C434.283 397.442 434.496 396.282 434.496 394.891C434.496 393.5 434.283 392.346 433.857 391.429C433.431 390.506 432.8 389.816 431.966 389.36C431.137 388.899 430.107 388.668 428.876 388.668H426.071V401.15ZM440.75 404V390.364H443.964V404H440.75ZM442.366 388.428C441.857 388.428 441.419 388.26 441.052 387.922C440.685 387.579 440.502 387.168 440.502 386.688C440.502 386.203 440.685 385.792 441.052 385.454C441.419 385.111 441.857 384.939 442.366 384.939C442.881 384.939 443.319 385.111 443.68 385.454C444.047 385.792 444.231 386.203 444.231 386.688C444.231 387.168 444.047 387.579 443.68 387.922C443.319 388.26 442.881 388.428 442.366 388.428ZM199.821 420.816C199.738 420.041 199.389 419.437 198.774 419.005C198.164 418.573 197.371 418.357 196.394 418.357C195.708 418.357 195.119 418.461 194.628 418.668C194.137 418.875 193.761 419.156 193.5 419.511C193.24 419.866 193.107 420.272 193.101 420.728C193.101 421.106 193.187 421.435 193.358 421.713C193.536 421.991 193.776 422.228 194.077 422.423C194.379 422.613 194.714 422.772 195.081 422.903C195.448 423.033 195.817 423.142 196.19 423.231L197.895 423.657C198.581 423.817 199.241 424.033 199.875 424.305C200.514 424.578 201.085 424.921 201.588 425.335C202.097 425.75 202.499 426.25 202.795 426.836C203.091 427.422 203.239 428.108 203.239 428.895C203.239 429.961 202.967 430.899 202.423 431.71C201.878 432.514 201.091 433.145 200.061 433.6C199.037 434.05 197.797 434.275 196.341 434.275C194.927 434.275 193.699 434.056 192.657 433.618C191.621 433.18 190.81 432.541 190.224 431.701C189.644 430.86 189.331 429.836 189.283 428.629H192.524C192.571 429.262 192.766 429.789 193.11 430.209C193.453 430.629 193.9 430.943 194.45 431.15C195.007 431.357 195.628 431.461 196.315 431.461C197.031 431.461 197.658 431.354 198.197 431.141C198.741 430.922 199.167 430.621 199.475 430.236C199.783 429.845 199.94 429.389 199.946 428.869C199.94 428.395 199.801 428.004 199.528 427.697C199.256 427.383 198.874 427.123 198.383 426.915C197.898 426.702 197.33 426.513 196.679 426.347L194.61 425.815C193.113 425.43 191.929 424.847 191.059 424.066C190.195 423.279 189.763 422.234 189.763 420.932C189.763 419.861 190.053 418.922 190.633 418.118C191.219 417.313 192.015 416.688 193.021 416.244C194.027 415.795 195.166 415.57 196.439 415.57C197.729 415.57 198.86 415.795 199.83 416.244C200.807 416.688 201.573 417.307 202.13 418.1C202.686 418.887 202.973 419.792 202.991 420.816H199.821ZM206.034 434V420.364H209.247V434H206.034ZM207.649 418.428C207.14 418.428 206.702 418.26 206.335 417.922C205.968 417.579 205.785 417.168 205.785 416.688C205.785 416.203 205.968 415.792 206.335 415.454C206.702 415.111 207.14 414.939 207.649 414.939C208.164 414.939 208.602 415.111 208.963 415.454C209.33 415.792 209.514 416.203 209.514 416.688C209.514 417.168 209.33 417.579 208.963 417.922C208.602 418.26 208.164 418.428 207.649 418.428ZM223.33 423.968L220.4 424.288C220.317 423.992 220.172 423.714 219.965 423.453C219.764 423.193 219.492 422.983 219.148 422.823C218.805 422.663 218.385 422.583 217.888 422.583C217.219 422.583 216.657 422.728 216.201 423.018C215.751 423.308 215.529 423.684 215.535 424.146C215.529 424.542 215.674 424.865 215.97 425.113C216.272 425.362 216.769 425.566 217.462 425.726L219.788 426.223C221.078 426.501 222.037 426.942 222.664 427.546C223.297 428.15 223.617 428.94 223.623 429.916C223.617 430.774 223.365 431.532 222.868 432.189C222.377 432.84 221.693 433.349 220.817 433.716C219.941 434.083 218.935 434.266 217.799 434.266C216.13 434.266 214.786 433.917 213.768 433.219C212.75 432.514 212.144 431.535 211.948 430.28L215.082 429.978C215.224 430.594 215.526 431.058 215.988 431.372C216.45 431.686 217.05 431.843 217.79 431.843C218.554 431.843 219.166 431.686 219.628 431.372C220.095 431.058 220.329 430.671 220.329 430.209C220.329 429.819 220.178 429.496 219.876 429.241C219.58 428.987 219.119 428.792 218.491 428.656L216.165 428.167C214.857 427.895 213.89 427.436 213.262 426.791C212.635 426.14 212.324 425.317 212.33 424.323C212.324 423.483 212.552 422.755 213.014 422.139C213.481 421.518 214.129 421.038 214.958 420.701C215.793 420.358 216.754 420.186 217.843 420.186C219.441 420.186 220.699 420.526 221.616 421.207C222.54 421.888 223.111 422.808 223.33 423.968ZM233.082 420.364V422.849H225.243V420.364H233.082ZM227.178 417.097H230.392V429.898C230.392 430.33 230.457 430.662 230.587 430.893C230.724 431.118 230.901 431.272 231.12 431.354C231.339 431.437 231.582 431.479 231.848 431.479C232.049 431.479 232.233 431.464 232.399 431.434C232.57 431.405 232.7 431.378 232.789 431.354L233.331 433.867C233.159 433.926 232.913 433.991 232.594 434.062C232.28 434.133 231.895 434.175 231.44 434.186C230.635 434.21 229.91 434.089 229.265 433.822C228.62 433.55 228.108 433.13 227.729 432.562C227.356 431.994 227.172 431.283 227.178 430.431V417.097ZM241.66 434.266C240.293 434.266 239.112 433.982 238.118 433.414C237.13 432.84 236.369 432.029 235.837 430.982C235.304 429.928 235.038 428.688 235.038 427.262C235.038 425.859 235.304 424.628 235.837 423.569C236.375 422.503 237.127 421.675 238.091 421.083C239.056 420.485 240.19 420.186 241.492 420.186C242.332 420.186 243.125 420.322 243.871 420.594C244.623 420.861 245.285 421.275 245.86 421.837C246.44 422.4 246.895 423.116 247.227 423.986C247.558 424.85 247.724 425.88 247.724 427.075V428.061H236.547V425.895H244.643C244.637 425.279 244.504 424.732 244.244 424.252C243.983 423.767 243.619 423.385 243.152 423.107C242.69 422.829 242.152 422.69 241.536 422.69C240.879 422.69 240.302 422.849 239.805 423.169C239.308 423.483 238.92 423.897 238.642 424.412C238.37 424.921 238.231 425.48 238.225 426.09V427.981C238.225 428.774 238.37 429.455 238.66 430.023C238.95 430.585 239.355 431.017 239.876 431.319C240.397 431.615 241.006 431.763 241.705 431.763C242.172 431.763 242.596 431.698 242.974 431.567C243.353 431.431 243.682 431.233 243.96 430.973C244.238 430.712 244.448 430.39 244.59 430.005L247.591 430.342C247.401 431.135 247.04 431.828 246.508 432.42C245.981 433.006 245.306 433.461 244.484 433.787C243.661 434.107 242.72 434.266 241.66 434.266ZM250.443 434V420.364H253.515V422.681H253.674C253.958 421.9 254.429 421.29 255.086 420.852C255.743 420.408 256.527 420.186 257.439 420.186C258.362 420.186 259.14 420.411 259.773 420.861C260.413 421.305 260.862 421.911 261.123 422.681H261.265C261.567 421.923 262.076 421.319 262.792 420.87C263.514 420.414 264.369 420.186 265.358 420.186C266.612 420.186 267.636 420.583 268.429 421.376C269.222 422.169 269.619 423.326 269.619 424.847V434H266.396V425.344C266.396 424.498 266.171 423.879 265.722 423.489C265.272 423.092 264.721 422.894 264.07 422.894C263.295 422.894 262.688 423.136 262.25 423.622C261.818 424.101 261.602 424.726 261.602 425.495V434H258.451V425.211C258.451 424.507 258.238 423.944 257.811 423.524C257.391 423.104 256.841 422.894 256.16 422.894C255.698 422.894 255.278 423.012 254.899 423.249C254.521 423.48 254.219 423.808 253.994 424.234C253.769 424.655 253.657 425.146 253.657 425.708V434H250.443ZM279.223 415.818H283.253L288.651 428.993H288.864L294.262 415.818H298.292V434H295.132V421.509H294.963L289.938 433.947H287.577L282.552 421.482H282.383V434H279.223V415.818ZM307.685 434.266C306.353 434.266 305.199 433.973 304.223 433.387C303.246 432.801 302.488 431.982 301.95 430.928C301.417 429.875 301.151 428.644 301.151 427.235C301.151 425.826 301.417 424.592 301.95 423.533C302.488 422.474 303.246 421.651 304.223 421.065C305.199 420.479 306.353 420.186 307.685 420.186C309.017 420.186 310.171 420.479 311.147 421.065C312.124 421.651 312.878 422.474 313.411 423.533C313.95 424.592 314.219 425.826 314.219 427.235C314.219 428.644 313.95 429.875 313.411 430.928C312.878 431.982 312.124 432.801 311.147 433.387C310.171 433.973 309.017 434.266 307.685 434.266ZM307.703 431.692C308.425 431.692 309.028 431.493 309.514 431.097C309.999 430.694 310.36 430.156 310.597 429.481C310.839 428.806 310.961 428.055 310.961 427.226C310.961 426.392 310.839 425.637 310.597 424.962C310.36 424.282 309.999 423.74 309.514 423.338C309.028 422.935 308.425 422.734 307.703 422.734C306.963 422.734 306.347 422.935 305.856 423.338C305.371 423.74 305.007 424.282 304.764 424.962C304.527 425.637 304.409 426.392 304.409 427.226C304.409 428.055 304.527 428.806 304.764 429.481C305.007 430.156 305.371 430.694 305.856 431.097C306.347 431.493 306.963 431.692 307.703 431.692ZM320.16 426.01V434H316.947V420.364H320.018V422.681H320.178C320.492 421.917 320.992 421.311 321.679 420.861C322.371 420.411 323.226 420.186 324.244 420.186C325.185 420.186 326.005 420.387 326.703 420.79C327.408 421.192 327.952 421.775 328.337 422.539C328.728 423.302 328.92 424.228 328.914 425.317V434H325.7V425.815C325.7 424.903 325.463 424.19 324.99 423.675C324.522 423.16 323.874 422.903 323.046 422.903C322.484 422.903 321.983 423.027 321.545 423.276C321.113 423.518 320.773 423.87 320.524 424.332C320.282 424.794 320.16 425.353 320.16 426.01ZM332.181 434V420.364H335.395V434H332.181ZM333.797 418.428C333.288 418.428 332.85 418.26 332.483 417.922C332.116 417.579 331.932 417.168 331.932 416.688C331.932 416.203 332.116 415.792 332.483 415.454C332.85 415.111 333.288 414.939 333.797 414.939C334.312 414.939 334.75 415.111 335.111 415.454C335.478 415.792 335.661 416.203 335.661 416.688C335.661 417.168 335.478 417.579 335.111 417.922C334.75 418.26 334.312 418.428 333.797 418.428ZM345.509 420.364V422.849H337.67V420.364H345.509ZM339.605 417.097H342.819V429.898C342.819 430.33 342.884 430.662 343.014 430.893C343.15 431.118 343.328 431.272 343.547 431.354C343.766 431.437 344.009 431.479 344.275 431.479C344.476 431.479 344.66 431.464 344.825 431.434C344.997 431.405 345.127 431.378 345.216 431.354L345.758 433.867C345.586 433.926 345.34 433.991 345.021 434.062C344.707 434.133 344.322 434.175 343.867 434.186C343.062 434.21 342.337 434.089 341.691 433.822C341.046 433.55 340.534 433.13 340.156 432.562C339.783 431.994 339.599 431.283 339.605 430.431V417.097ZM353.998 434.266C352.667 434.266 351.513 433.973 350.536 433.387C349.559 432.801 348.802 431.982 348.263 430.928C347.731 429.875 347.464 428.644 347.464 427.235C347.464 425.826 347.731 424.592 348.263 423.533C348.802 422.474 349.559 421.651 350.536 421.065C351.513 420.479 352.667 420.186 353.998 420.186C355.33 420.186 356.484 420.479 357.461 421.065C358.437 421.651 359.192 422.474 359.725 423.533C360.263 424.592 360.532 425.826 360.532 427.235C360.532 428.644 360.263 429.875 359.725 430.928C359.192 431.982 358.437 432.801 357.461 433.387C356.484 433.973 355.33 434.266 353.998 434.266ZM354.016 431.692C354.738 431.692 355.342 431.493 355.827 431.097C356.313 430.694 356.674 430.156 356.91 429.481C357.153 428.806 357.274 428.055 357.274 427.226C357.274 426.392 357.153 425.637 356.91 424.962C356.674 424.282 356.313 423.74 355.827 423.338C355.342 422.935 354.738 422.734 354.016 422.734C353.276 422.734 352.661 422.935 352.17 423.338C351.684 423.74 351.32 424.282 351.078 424.962C350.841 425.637 350.722 426.392 350.722 427.226C350.722 428.055 350.841 428.806 351.078 429.481C351.32 430.156 351.684 430.694 352.17 431.097C352.661 431.493 353.276 431.692 354.016 431.692ZM363.26 434V420.364H366.376V422.636H366.518C366.767 421.849 367.193 421.243 367.797 420.816C368.406 420.384 369.102 420.168 369.883 420.168C370.061 420.168 370.259 420.177 370.478 420.195C370.703 420.207 370.889 420.228 371.037 420.257V423.213C370.901 423.166 370.685 423.125 370.389 423.089C370.099 423.048 369.818 423.027 369.546 423.027C368.96 423.027 368.433 423.154 367.965 423.409C367.504 423.657 367.14 424.004 366.873 424.447C366.607 424.891 366.474 425.403 366.474 425.983V434H363.26ZM373.172 434V420.364H376.386V434H373.172ZM374.788 418.428C374.279 418.428 373.841 418.26 373.474 417.922C373.107 417.579 372.924 417.168 372.924 416.688C372.924 416.203 373.107 415.792 373.474 415.454C373.841 415.111 374.279 414.939 374.788 414.939C375.303 414.939 375.741 415.111 376.102 415.454C376.469 415.792 376.652 416.203 376.652 416.688C376.652 417.168 376.469 417.579 376.102 417.922C375.741 418.26 375.303 418.428 374.788 418.428ZM382.905 426.01V434H379.691V420.364H382.763V422.681H382.922C383.236 421.917 383.736 421.311 384.423 420.861C385.115 420.411 385.97 420.186 386.988 420.186C387.929 420.186 388.749 420.387 389.448 420.79C390.152 421.192 390.696 421.775 391.081 422.539C391.472 423.302 391.664 424.228 391.658 425.317V434H388.444V425.815C388.444 424.903 388.208 424.19 387.734 423.675C387.267 423.16 386.619 422.903 385.79 422.903C385.228 422.903 384.728 423.027 384.29 423.276C383.857 423.518 383.517 423.87 383.269 424.332C383.026 424.794 382.905 425.353 382.905 426.01ZM400.856 439.398C399.701 439.398 398.71 439.241 397.882 438.927C397.053 438.619 396.387 438.205 395.884 437.684C395.381 437.163 395.032 436.586 394.836 435.953L397.731 435.252C397.861 435.518 398.05 435.781 398.299 436.042C398.547 436.308 398.882 436.527 399.302 436.699C399.728 436.876 400.264 436.965 400.909 436.965C401.82 436.965 402.575 436.743 403.173 436.299C403.77 435.861 404.069 435.139 404.069 434.133V431.55H403.91C403.744 431.881 403.501 432.221 403.182 432.571C402.868 432.92 402.451 433.213 401.93 433.45C401.415 433.686 400.767 433.805 399.986 433.805C398.938 433.805 397.988 433.559 397.136 433.068C396.289 432.571 395.615 431.831 395.112 430.848C394.614 429.86 394.366 428.623 394.366 427.137C394.366 425.64 394.614 424.376 395.112 423.347C395.615 422.311 396.292 421.527 397.145 420.994C397.997 420.455 398.947 420.186 399.994 420.186C400.793 420.186 401.45 420.322 401.965 420.594C402.486 420.861 402.9 421.183 403.208 421.562C403.516 421.935 403.75 422.287 403.91 422.619H404.087V420.364H407.257V434.222C407.257 435.388 406.978 436.353 406.422 437.116C405.866 437.88 405.105 438.451 404.14 438.83C403.176 439.208 402.081 439.398 400.856 439.398ZM400.882 431.283C401.563 431.283 402.143 431.118 402.622 430.786C403.102 430.455 403.466 429.978 403.714 429.357C403.963 428.735 404.087 427.99 404.087 427.12C404.087 426.261 403.963 425.51 403.714 424.865C403.472 424.22 403.111 423.719 402.631 423.364C402.158 423.003 401.575 422.823 400.882 422.823C400.166 422.823 399.568 423.009 399.089 423.382C398.61 423.755 398.248 424.267 398.006 424.918C397.763 425.563 397.642 426.297 397.642 427.12C397.642 427.954 397.763 428.685 398.006 429.312C398.254 429.934 398.618 430.419 399.098 430.768C399.583 431.112 400.178 431.283 400.882 431.283ZM426.774 420.816C426.692 420.041 426.342 419.437 425.727 419.005C425.117 418.573 424.324 418.357 423.348 418.357C422.661 418.357 422.072 418.461 421.581 418.668C421.09 418.875 420.714 419.156 420.453 419.511C420.193 419.866 420.06 420.272 420.054 420.728C420.054 421.106 420.14 421.435 420.311 421.713C420.489 421.991 420.729 422.228 421.03 422.423C421.332 422.613 421.667 422.772 422.034 422.903C422.401 423.033 422.771 423.142 423.143 423.231L424.848 423.657C425.535 423.817 426.194 424.033 426.828 424.305C427.467 424.578 428.038 424.921 428.541 425.335C429.05 425.75 429.453 426.25 429.749 426.836C430.044 427.422 430.192 428.108 430.192 428.895C430.192 429.961 429.92 430.899 429.376 431.71C428.831 432.514 428.044 433.145 427.014 433.6C425.99 434.05 424.75 434.275 423.294 434.275C421.88 434.275 420.652 434.056 419.61 433.618C418.574 433.18 417.763 432.541 417.178 431.701C416.597 430.86 416.284 429.836 416.236 428.629H419.477C419.524 429.262 419.72 429.789 420.063 430.209C420.406 430.629 420.853 430.943 421.403 431.15C421.96 431.357 422.581 431.461 423.268 431.461C423.984 431.461 424.611 431.354 425.15 431.141C425.694 430.922 426.12 430.621 426.428 430.236C426.736 429.845 426.893 429.389 426.899 428.869C426.893 428.395 426.754 428.004 426.481 427.697C426.209 427.383 425.827 427.123 425.336 426.915C424.851 426.702 424.283 426.513 423.632 426.347L421.563 425.815C420.066 425.43 418.882 424.847 418.012 424.066C417.148 423.279 416.716 422.234 416.716 420.932C416.716 419.861 417.006 418.922 417.586 418.118C418.172 417.313 418.968 416.688 419.974 416.244C420.98 415.795 422.12 415.57 423.392 415.57C424.682 415.57 425.813 415.795 426.783 416.244C427.76 416.688 428.526 417.307 429.083 418.1C429.639 418.887 429.926 419.792 429.944 420.816H426.774ZM432.987 434V420.364H436.201V434H432.987ZM434.602 418.428C434.093 418.428 433.656 418.26 433.289 417.922C432.922 417.579 432.738 417.168 432.738 416.688C432.738 416.203 432.922 415.792 433.289 415.454C433.656 415.111 434.093 414.939 434.602 414.939C435.117 414.939 435.555 415.111 435.916 415.454C436.283 415.792 436.467 416.203 436.467 416.688C436.467 417.168 436.283 417.579 435.916 417.922C435.555 418.26 435.117 418.428 434.602 418.428ZM450.283 423.968L447.353 424.288C447.27 423.992 447.125 423.714 446.918 423.453C446.717 423.193 446.445 422.983 446.102 422.823C445.758 422.663 445.338 422.583 444.841 422.583C444.172 422.583 443.61 422.728 443.154 423.018C442.704 423.308 442.482 423.684 442.488 424.146C442.482 424.542 442.627 424.865 442.923 425.113C443.225 425.362 443.722 425.566 444.415 425.726L446.741 426.223C448.031 426.501 448.99 426.942 449.617 427.546C450.25 428.15 450.57 428.94 450.576 429.916C450.57 430.774 450.318 431.532 449.821 432.189C449.33 432.84 448.646 433.349 447.771 433.716C446.895 434.083 445.888 434.266 444.752 434.266C443.083 434.266 441.74 433.917 440.722 433.219C439.704 432.514 439.097 431.535 438.902 430.28L442.035 429.978C442.178 430.594 442.479 431.058 442.941 431.372C443.403 431.686 444.003 431.843 444.743 431.843C445.507 431.843 446.119 431.686 446.581 431.372C447.048 431.058 447.282 430.671 447.282 430.209C447.282 429.819 447.131 429.496 446.83 429.241C446.534 428.987 446.072 428.792 445.445 428.656L443.119 428.167C441.811 427.895 440.843 427.436 440.216 426.791C439.588 426.14 439.277 425.317 439.283 424.323C439.277 423.483 439.505 422.755 439.967 422.139C440.434 421.518 441.083 421.038 441.911 420.701C442.746 420.358 443.707 420.186 444.796 420.186C446.394 420.186 447.652 420.526 448.57 421.207C449.493 421.888 450.064 422.808 450.283 423.968ZM456.04 434L452.187 420.364H455.463L457.86 429.952H457.985L460.435 420.364H463.675L466.125 429.898H466.259L468.62 420.364H471.905L468.043 434H464.696L462.139 424.785H461.953L459.396 434H456.04ZM478.073 434.275C477.209 434.275 476.43 434.121 475.738 433.814C475.051 433.5 474.507 433.038 474.104 432.429C473.708 431.819 473.51 431.067 473.51 430.174C473.51 429.404 473.652 428.768 473.936 428.265C474.22 427.762 474.608 427.359 475.099 427.058C475.59 426.756 476.143 426.528 476.759 426.374C477.38 426.214 478.023 426.099 478.685 426.028C479.484 425.945 480.133 425.871 480.63 425.806C481.127 425.735 481.488 425.628 481.713 425.486C481.944 425.338 482.059 425.11 482.059 424.803V424.749C482.059 424.08 481.861 423.563 481.464 423.196C481.068 422.829 480.496 422.645 479.751 422.645C478.964 422.645 478.339 422.817 477.878 423.16C477.422 423.503 477.114 423.909 476.954 424.376L473.954 423.95C474.19 423.122 474.581 422.429 475.125 421.873C475.67 421.311 476.336 420.89 477.123 420.612C477.91 420.328 478.78 420.186 479.733 420.186C480.39 420.186 481.044 420.263 481.695 420.417C482.346 420.571 482.941 420.825 483.479 421.18C484.018 421.53 484.45 422.006 484.776 422.61C485.107 423.213 485.273 423.968 485.273 424.874V434H482.183V432.127H482.077C481.881 432.506 481.606 432.861 481.251 433.192C480.902 433.518 480.461 433.781 479.928 433.982C479.402 434.178 478.783 434.275 478.073 434.275ZM478.907 431.914C479.552 431.914 480.112 431.786 480.585 431.532C481.059 431.272 481.423 430.928 481.677 430.502C481.938 430.076 482.068 429.611 482.068 429.108V427.501C481.967 427.584 481.796 427.661 481.553 427.732C481.316 427.803 481.05 427.865 480.754 427.919C480.458 427.972 480.165 428.019 479.875 428.061C479.585 428.102 479.333 428.138 479.12 428.167C478.641 428.232 478.212 428.339 477.833 428.487C477.454 428.635 477.155 428.842 476.936 429.108C476.717 429.369 476.608 429.706 476.608 430.12C476.608 430.712 476.824 431.159 477.256 431.461C477.688 431.763 478.239 431.914 478.907 431.914Z" fill="white"/>
<path d="M190.333 349.824C191.307 338.935 175.565 354.807 166.167 365.688C165.569 366.381 166.146 367.406 167.043 367.227C175.707 365.494 189.397 360.287 190.333 349.824Z" fill="#EFF320" fill-opacity="0.58"/>
<path d="M231.384 429.537C231.821 424.651 225.233 431.011 220.697 436.12C220.089 436.805 220.658 437.801 221.544 437.573C225.635 436.517 230.981 434.046 231.384 429.537Z" fill="#EFF320" fill-opacity="0.58"/>
<path d="M478.298 354.157C479.566 339.984 458.782 361.113 446.779 375.092C446.183 375.787 446.76 376.815 447.659 376.647C458.728 374.574 477.07 367.892 478.298 354.157Z" fill="#EFF320" fill-opacity="0.58"/>
<path d="M446.48 468.321C446.927 463.324 440.171 469.858 435.541 475.077C434.934 475.762 435.503 476.76 436.389 476.533C440.57 475.463 446.067 472.94 446.48 468.321Z" fill="#EFF320" fill-opacity="0.58"/>
<path d="M245.64 147.823C272.234 147.823 325.871 160.37 327.678 210.557" stroke="white" stroke-opacity="0.42" stroke-dasharray="2 2"/>
<path d="M462.798 160.692C436.205 160.692 382.567 173.238 380.761 223.426" stroke="white" stroke-opacity="0.42" stroke-dasharray="2 2"/>
<path d="M456.763 329.523C440.237 308.688 397.075 274.461 356.632 304.234" stroke="white" stroke-opacity="0.42" stroke-dasharray="2 2"/>
<path d="M310.051 295.012C290.035 277.503 241.402 251.633 207 288.219" stroke="white" stroke-opacity="0.42" stroke-dasharray="2 2"/>
<rect x="181.297" y="106" width="69.1688" height="69.1688" rx="19" fill="white"/>
<g clip-path="url(#clip0_779_1658)">
<path d="M216.3 122.086H224.908C225.584 122.086 226.137 122.628 226.137 123.296V126.928C226.137 127.596 225.584 128.138 224.908 128.138H218.759V129.313L225.699 134.19H233.515C236.228 134.19 238.434 136.362 238.434 139.032V155.978C238.434 158.649 236.228 160.82 233.515 160.82H219.989V152.347C219.989 150.342 218.337 148.716 216.3 148.716C214.263 148.716 212.611 150.342 212.611 152.347V160.82H199.085C196.368 160.82 194.166 158.649 194.166 155.978V139.032C194.166 136.362 196.368 134.19 199.085 134.19H206.901L213.841 129.313V124.507C213.841 123.17 214.94 122.086 216.3 122.086ZM216.3 136.611C214.263 136.611 212.611 138.238 212.611 140.243C212.611 142.247 214.263 143.874 216.3 143.874C218.337 143.874 219.989 142.247 219.989 140.243C219.989 138.238 218.337 136.611 216.3 136.611ZM200.314 139.032C199.635 139.032 199.085 139.577 199.085 140.243V145.084C199.085 145.75 199.635 146.295 200.314 146.295H202.774C203.45 146.295 204.003 145.75 204.003 145.084V140.243C204.003 139.577 203.45 139.032 202.774 139.032H200.314ZM228.597 145.084C228.597 145.75 229.15 146.295 229.826 146.295H232.286C232.962 146.295 233.515 145.75 233.515 145.084V140.243C233.515 139.577 232.962 139.032 232.286 139.032H229.826C229.15 139.032 228.597 139.577 228.597 140.243V145.084ZM200.314 148.716C199.635 148.716 199.085 149.26 199.085 149.926V154.768C199.085 155.434 199.635 155.978 200.314 155.978H202.774C203.45 155.978 204.003 155.434 204.003 154.768V149.926C204.003 149.26 203.45 148.716 202.774 148.716H200.314ZM229.826 148.716C229.15 148.716 228.597 149.26 228.597 149.926V154.768C228.597 155.434 229.15 155.978 229.826 155.978H232.286C232.962 155.978 233.515 155.434 233.515 154.768V149.926C233.515 149.26 232.962 148.716 232.286 148.716H229.826Z" fill="#2DA833"/>
</g>
<rect x="182.906" y="262.032" width="40.2144" height="40.2144" rx="13" fill="white"/>
<g clip-path="url(#clip1_779_1658)">
<path d="M214.476 277.774L204.41 274.064C203.921 273.884 203.388 273.884 202.899 274.064L192.861 277.774C192.519 277.902 192.289 278.239 192.289 278.62C192.289 279.002 192.519 279.341 192.861 279.467L194.998 280.255C194.575 280.834 194.277 281.507 194.124 282.233C193.715 282.41 193.429 282.828 193.429 283.312C193.429 283.677 193.6 283.99 193.854 284.205L192.97 289.666C192.912 290.023 193.179 290.35 193.532 290.35H195.605C195.957 290.35 196.225 290.024 196.167 289.667L195.282 284.205C195.536 283.99 195.708 283.646 195.708 283.312C195.708 282.935 195.523 282.615 195.255 282.4C195.406 281.749 195.713 281.16 196.143 280.676L202.929 283.177C203.418 283.357 203.951 283.357 204.44 283.177L214.506 279.467C214.85 279.339 215.077 279.002 215.077 278.62C215.077 278.239 214.85 277.902 214.476 277.774ZM204.791 284.28C204.456 284.415 204.072 284.485 203.683 284.485C203.295 284.485 202.911 284.417 202.544 284.281L197.374 282.377L196.847 287.612C196.847 289.125 199.877 290.35 203.683 290.35C207.426 290.35 210.52 289.125 210.52 287.613L209.994 282.375L204.791 284.28Z" fill="#FFC107"/>
</g>
<rect x="414.541" y="126.911" width="48.2573" height="48.2573" rx="13" fill="white"/>
<g clip-path="url(#clip2_779_1658)">
<path d="M448.241 142.997H434.729C433.796 142.997 433.04 143.766 433.04 144.712V146.315C433.864 146.315 434.626 146.549 435.26 146.93V145.209H447.646V155.162H445.394V153.503C445.394 153.198 445.142 152.95 444.831 152.95H441.453C441.142 152.95 440.89 153.198 440.89 153.503V155.162H437.519C438.296 155.732 438.91 156.493 439.305 157.374H448.239C449.173 157.374 449.93 156.607 449.93 155.66V144.712C449.93 143.766 449.173 142.997 448.241 142.997ZM433.04 154.056C434.905 154.056 436.418 152.571 436.418 150.739C436.418 148.906 434.905 147.421 433.04 147.421C431.143 147.421 429.662 148.876 429.662 150.739C429.662 152.57 431.143 154.056 433.04 154.056ZM434.166 155.162H431.914C429.426 155.162 427.41 157.143 427.41 159.586C427.41 160.196 427.914 160.692 428.536 160.692H437.544C438.165 160.692 438.67 160.196 438.67 159.586C438.67 157.142 436.653 155.162 434.166 155.162Z" fill="#C20000"/>
</g>
<rect x="438.67" y="302.246" width="35.3887" height="35.3887" rx="13" fill="white"/>
<g clip-path="url(#clip3_779_1658)">
<path d="M455.957 311.767C456.215 311.655 456.512 311.655 456.77 311.767L463.995 314.863C464.447 315.057 464.699 315.541 464.599 316.018C464.502 316.499 464.079 316.815 463.56 316.844V317.102C463.56 317.531 463.244 317.876 462.786 317.876H449.884C449.485 317.876 449.11 317.531 449.11 317.102V316.844C448.649 316.815 448.226 316.499 448.127 316.018C448.029 315.541 448.282 315.057 448.732 314.863L455.957 311.767ZM456.364 315.812C456.935 315.812 457.396 315.351 457.396 314.78C457.396 314.21 456.935 313.748 456.364 313.748C455.793 313.748 455.332 314.21 455.332 314.78C455.332 315.351 455.793 315.812 456.364 315.812ZM452.206 325.101H453.496V318.908H455.561V325.101H457.138V318.908H459.202V325.101H460.492V318.908H462.557V325.24C462.576 325.25 462.595 325.234 462.615 325.276L464.163 326.308C464.54 326.559 464.708 327.03 464.576 327.466C464.444 327.901 464.044 328.198 463.589 328.198H449.11C448.684 328.198 448.282 327.901 448.151 327.466C448.019 327.03 448.188 326.559 448.566 326.308L450.114 325.276C450.133 325.234 450.152 325.25 450.142 325.24V318.908H452.206V325.101Z" fill="#9C00D3"/>
</g>
<g filter="url(#filter7_d_779_1658)">
<g filter="url(#filter8_d_779_1658)">
<path d="M331.164 192.827C334.315 190.544 338.576 190.544 341.726 192.827L394.993 231.427C398.156 233.719 399.479 237.789 398.27 241.503L377.933 303.93C376.726 307.635 373.272 310.142 369.376 310.142H303.515C299.618 310.142 296.164 307.635 294.957 303.93L274.621 241.503C273.411 237.789 274.734 233.719 277.897 231.427L331.164 192.827Z" fill="#F6F9FF"/>
</g>
<path d="M335.571 229.249C335.847 229.129 336.144 229.067 336.445 229.067C336.746 229.067 337.043 229.129 337.319 229.249C348.092 233.946 358.368 239.703 367.994 246.436C368.333 246.673 368.598 247.001 368.757 247.383C368.916 247.765 368.963 248.183 368.893 248.591C368.822 248.998 368.637 249.377 368.359 249.683C368.08 249.989 367.721 250.21 367.321 250.32C357.327 253.073 347.657 256.884 338.476 261.687L338.467 261.693L337.476 262.216C337.16 262.384 336.806 262.473 336.447 262.473C336.087 262.473 335.734 262.384 335.417 262.216C331.48 260.117 327.449 258.2 323.336 256.471V255.82C323.336 255.44 323.531 255.1 323.837 254.917C328.234 252.259 332.758 249.816 337.392 247.595C337.914 247.344 338.315 246.897 338.507 246.352C338.699 245.806 338.665 245.207 338.414 244.686C338.163 244.165 337.715 243.765 337.168 243.574C336.621 243.383 336.021 243.416 335.498 243.667C330.738 245.948 326.091 248.459 321.574 251.189C320.931 251.578 320.377 252.096 319.946 252.71C319.515 253.325 319.217 254.022 319.071 254.757C314.647 253.059 310.142 251.578 305.572 250.32C305.173 250.21 304.813 249.989 304.535 249.683C304.256 249.377 304.071 248.998 304.001 248.591C303.93 248.183 303.977 247.765 304.136 247.383C304.295 247.001 304.56 246.673 304.899 246.436C314.524 239.703 324.799 233.946 335.571 229.249Z" fill="#027FFF"/>
<path d="M339.533 266.057C346.688 262.244 354.16 259.053 361.865 256.521C362.255 260.629 362.506 264.781 362.608 268.971C362.618 269.409 362.496 269.841 362.257 270.209C362.018 270.577 361.673 270.864 361.268 271.034C353.01 274.474 345.103 278.699 337.657 283.65C337.298 283.888 336.876 284.016 336.445 284.016C336.014 284.016 335.592 283.888 335.233 283.65C327.788 278.699 319.882 274.474 311.625 271.034C311.219 270.865 310.874 270.577 310.634 270.209C310.395 269.841 310.272 269.41 310.282 268.971C310.384 264.781 310.635 260.632 311.025 256.518C313.701 257.397 316.349 258.356 318.966 259.394V263.084C318.337 263.446 317.808 263.958 317.427 264.575C317.046 265.192 316.826 265.894 316.785 266.618C316.745 267.341 316.886 268.063 317.195 268.719C317.505 269.374 317.973 269.942 318.559 270.371C318.296 271.475 317.912 272.559 317.402 273.596C318.719 274.215 320.027 274.857 321.323 275.517C322.054 274.034 322.593 272.464 322.928 270.845C323.665 270.518 324.297 269.995 324.753 269.332C325.21 268.669 325.474 267.894 325.517 267.091C325.559 266.288 325.378 265.489 324.993 264.782C324.608 264.075 324.035 263.489 323.336 263.087V261.213C326.739 262.697 330.082 264.313 333.357 266.059C334.307 266.566 335.368 266.83 336.445 266.83C337.522 266.83 338.583 266.566 339.533 266.059V266.057Z" fill="#027FFF"/>
<path d="M314.486 277.647C315.71 276.429 316.68 275.061 317.399 273.596C318.719 274.215 320.027 274.857 321.323 275.517C320.37 277.448 319.104 279.209 317.577 280.73C317.377 280.944 317.136 281.115 316.868 281.234C316.6 281.354 316.31 281.418 316.017 281.423C315.724 281.428 315.432 281.374 315.16 281.264C314.888 281.155 314.641 280.992 314.434 280.785C314.226 280.578 314.063 280.331 313.953 280.06C313.843 279.789 313.789 279.498 313.794 279.206C313.799 278.913 313.863 278.624 313.983 278.357C314.102 278.09 314.274 277.849 314.489 277.65L314.486 277.647Z" fill="#027FFF"/>
<path d="M281.209 335.457C280.527 335.457 279.911 335.34 279.361 335.107C278.819 334.873 278.39 334.537 278.073 334.099C277.755 333.66 277.592 333.142 277.583 332.545H279.683C279.711 332.946 279.851 333.263 280.103 333.497C280.364 333.73 280.719 333.847 281.167 333.847C281.624 333.847 281.983 333.739 282.245 333.525C282.506 333.301 282.637 333.011 282.637 332.657C282.637 332.367 282.548 332.129 282.371 331.943C282.193 331.756 281.969 331.611 281.699 331.509C281.437 331.397 281.073 331.275 280.607 331.145C279.972 330.958 279.454 330.776 279.053 330.599C278.661 330.412 278.32 330.137 278.031 329.773C277.751 329.399 277.611 328.905 277.611 328.289C277.611 327.71 277.755 327.206 278.045 326.777C278.334 326.347 278.74 326.021 279.263 325.797C279.785 325.563 280.383 325.447 281.055 325.447C282.063 325.447 282.879 325.694 283.505 326.189C284.139 326.674 284.489 327.355 284.555 328.233H282.399C282.38 327.897 282.235 327.621 281.965 327.407C281.703 327.183 281.353 327.071 280.915 327.071C280.532 327.071 280.224 327.169 279.991 327.365C279.767 327.561 279.655 327.845 279.655 328.219C279.655 328.48 279.739 328.699 279.907 328.877C280.084 329.045 280.299 329.185 280.551 329.297C280.812 329.399 281.176 329.521 281.643 329.661C282.277 329.847 282.795 330.034 283.197 330.221C283.598 330.407 283.943 330.687 284.233 331.061C284.522 331.434 284.667 331.924 284.667 332.531C284.667 333.053 284.531 333.539 284.261 333.987C283.99 334.435 283.593 334.794 283.071 335.065C282.548 335.326 281.927 335.457 281.209 335.457ZM297.16 325.587V335.359H295.2V329.003L292.582 335.359H291.098L288.466 329.003V335.359H286.506V325.587H288.732L291.84 332.853L294.948 325.587H297.16ZM305.23 333.497H301.338L300.694 335.359H298.636L302.15 325.573H304.432L307.946 335.359H305.874L305.23 333.497ZM304.698 331.929L303.284 327.841L301.87 331.929H304.698ZM312.413 326.959V325.153H315.787V335.359H313.771V326.959H312.413ZM323.523 325.587V335.359H321.563V325.587H323.523ZM333.958 335.359H331.998L327.56 328.653V335.359H325.6V325.573H327.56L331.998 332.293V325.573H333.958V335.359ZM339.451 325.587C340.477 325.587 341.378 325.787 342.153 326.189C342.937 326.59 343.539 327.164 343.959 327.911C344.388 328.648 344.603 329.507 344.603 330.487C344.603 331.467 344.388 332.325 343.959 333.063C343.539 333.791 342.937 334.355 342.153 334.757C341.378 335.158 340.477 335.359 339.451 335.359H336.035V325.587H339.451ZM339.381 333.693C340.407 333.693 341.201 333.413 341.761 332.853C342.321 332.293 342.601 331.504 342.601 330.487C342.601 329.469 342.321 328.676 341.761 328.107C341.201 327.528 340.407 327.239 339.381 327.239H337.995V333.693H339.381ZM350.746 335.457C349.831 335.457 348.991 335.242 348.226 334.813C347.461 334.383 346.854 333.791 346.406 333.035C345.958 332.269 345.734 331.406 345.734 330.445C345.734 329.493 345.958 328.639 346.406 327.883C346.854 327.117 347.461 326.52 348.226 326.091C348.991 325.661 349.831 325.447 350.746 325.447C351.67 325.447 352.51 325.661 353.266 326.091C354.031 326.52 354.633 327.117 355.072 327.883C355.52 328.639 355.744 329.493 355.744 330.445C355.744 331.406 355.52 332.269 355.072 333.035C354.633 333.791 354.031 334.383 353.266 334.813C352.501 335.242 351.661 335.457 350.746 335.457ZM350.746 333.707C351.334 333.707 351.852 333.576 352.3 333.315C352.748 333.044 353.098 332.661 353.35 332.167C353.602 331.672 353.728 331.098 353.728 330.445C353.728 329.791 353.602 329.222 353.35 328.737C353.098 328.242 352.748 327.864 352.3 327.603C351.852 327.341 351.334 327.211 350.746 327.211C350.158 327.211 349.635 327.341 349.178 327.603C348.73 327.864 348.38 328.242 348.128 328.737C347.876 329.222 347.75 329.791 347.75 330.445C347.75 331.098 347.876 331.672 348.128 332.167C348.38 332.661 348.73 333.044 349.178 333.315C349.635 333.576 350.158 333.707 350.746 333.707ZM365.7 335.359H363.74L359.302 328.653V335.359H357.342V325.573H359.302L363.74 332.293V325.573H365.7V335.359ZM369.737 327.169V329.619H373.027V331.173H369.737V333.763H373.447V335.359H367.777V325.573H373.447V327.169H369.737ZM378.742 335.457C378.061 335.457 377.445 335.34 376.894 335.107C376.353 334.873 375.923 334.537 375.606 334.099C375.289 333.66 375.125 333.142 375.116 332.545H377.216C377.244 332.946 377.384 333.263 377.636 333.497C377.897 333.73 378.252 333.847 378.7 333.847C379.157 333.847 379.517 333.739 379.778 333.525C380.039 333.301 380.17 333.011 380.17 332.657C380.17 332.367 380.081 332.129 379.904 331.943C379.727 331.756 379.503 331.611 379.232 331.509C378.971 331.397 378.607 331.275 378.14 331.145C377.505 330.958 376.987 330.776 376.586 330.599C376.194 330.412 375.853 330.137 375.564 329.773C375.284 329.399 375.144 328.905 375.144 328.289C375.144 327.71 375.289 327.206 375.578 326.777C375.867 326.347 376.273 326.021 376.796 325.797C377.319 325.563 377.916 325.447 378.588 325.447C379.596 325.447 380.413 325.694 381.038 326.189C381.673 326.674 382.023 327.355 382.088 328.233H379.932C379.913 327.897 379.769 327.621 379.498 327.407C379.237 327.183 378.887 327.071 378.448 327.071C378.065 327.071 377.757 327.169 377.524 327.365C377.3 327.561 377.188 327.845 377.188 328.219C377.188 328.48 377.272 328.699 377.44 328.877C377.617 329.045 377.832 329.185 378.084 329.297C378.345 329.399 378.709 329.521 379.176 329.661C379.811 329.847 380.329 330.034 380.73 330.221C381.131 330.407 381.477 330.687 381.766 331.061C382.055 331.434 382.2 331.924 382.2 332.531C382.2 333.053 382.065 333.539 381.794 333.987C381.523 334.435 381.127 334.794 380.604 335.065C380.081 335.326 379.461 335.457 378.742 335.457ZM385.999 325.587V335.359H384.039V325.587H385.999ZM394.068 333.497H390.176L389.532 335.359H387.474L390.988 325.573H393.27L396.784 335.359H394.712L394.068 333.497ZM393.536 331.929L392.122 327.841L390.708 331.929H393.536Z" fill="white"/>
</g>
<defs>
<filter id="filter0_f_779_1658" x="570.823" y="128.385" width="34.1185" height="35.2513" filterUnits="userSpaceOnUse" color-interpolation-filters="sRGB">
<feFlood flood-opacity="0" result="BackgroundImageFix"/>
<feBlend mode="normal" in="SourceGraphic" in2="BackgroundImageFix" result="shape"/>
<feGaussianBlur stdDeviation="2" result="effect1_foregroundBlur_779_1658"/>
</filter>
<filter id="filter1_f_779_1658" x="35.8231" y="458.385" width="34.1185" height="35.2513" filterUnits="userSpaceOnUse" color-interpolation-filters="sRGB">
<feFlood flood-opacity="0" result="BackgroundImageFix"/>
<feBlend mode="normal" in="SourceGraphic" in2="BackgroundImageFix" result="shape"/>
<feGaussianBlur stdDeviation="2" result="effect1_foregroundBlur_779_1658"/>
</filter>
<filter id="filter2_f_779_1658" x="56.8231" y="67.3849" width="34.1185" height="35.2513" filterUnits="userSpaceOnUse" color-interpolation-filters="sRGB">
<feFlood flood-opacity="0" result="BackgroundImageFix"/>
<feBlend mode="normal" in="SourceGraphic" in2="BackgroundImageFix" result="shape"/>
<feGaussianBlur stdDeviation="2" result="effect1_foregroundBlur_779_1658"/>
</filter>
<filter id="filter3_f_779_1658" x="528.188" y="440.627" width="45.2254" height="55.9467" filterUnits="userSpaceOnUse" color-interpolation-filters="sRGB">
<feFlood flood-opacity="0" result="BackgroundImageFix"/>
<feBlend mode="normal" in="SourceGraphic" in2="BackgroundImageFix" result="shape"/>
<feGaussianBlur stdDeviation="2" result="effect1_foregroundBlur_779_1658"/>
</filter>
<filter id="filter4_f_779_1658" x="548" y="435.607" width="47.2007" height="44.087" filterUnits="userSpaceOnUse" color-interpolation-filters="sRGB">
<feFlood flood-opacity="0" result="BackgroundImageFix"/>
<feBlend mode="normal" in="SourceGraphic" in2="BackgroundImageFix" result="shape"/>
<feGaussianBlur stdDeviation="2" result="effect1_foregroundBlur_779_1658"/>
</filter>
<filter id="filter5_f_779_1658" x="73.5919" y="128" width="95.6889" height="102.648" filterUnits="userSpaceOnUse" color-interpolation-filters="sRGB">
<feFlood flood-opacity="0" result="BackgroundImageFix"/>
<feBlend mode="normal" in="SourceGraphic" in2="BackgroundImageFix" result="shape"/>
<feGaussianBlur stdDeviation="2" result="effect1_foregroundBlur_779_1658"/>
</filter>
<filter id="filter6_f_779_1658" x="510.592" y="57" width="33.2084" height="40.1678" filterUnits="userSpaceOnUse" color-interpolation-filters="sRGB">
<feFlood flood-opacity="0" result="BackgroundImageFix"/>
<feBlend mode="normal" in="SourceGraphic" in2="BackgroundImageFix" result="shape"/>
<feGaussianBlur stdDeviation="2" result="effect1_foregroundBlur_779_1658"/>
</filter>
<filter id="filter7_d_779_1658" x="186" y="133" width="302" height="266.457" filterUnits="userSpaceOnUse" color-interpolation-filters="sRGB">
<feFlood flood-opacity="0" result="BackgroundImageFix"/>
<feColorMatrix in="SourceAlpha" type="matrix" values="0 0 0 0 0 0 0 0 0 0 0 0 0 0 0 0 0 0 127 0" result="hardAlpha"/>
<feOffset dy="4"/>
<feGaussianBlur stdDeviation="30"/>
<feComposite in2="hardAlpha" operator="out"/>
<feColorMatrix type="matrix" values="0 0 0 0 0 0 0 0 0 0 0 0 0 0 0 0 0 0 0.05 0"/>
<feBlend mode="normal" in2="BackgroundImageFix" result="effect1_dropShadow_779_1658"/>
<feBlend mode="normal" in="SourceGraphic" in2="effect1_dropShadow_779_1658" result="shape"/>
</filter>
<filter id="filter8_d_779_1658" x="233.177" y="154.115" width="206.536" height="201.027" filterUnits="userSpaceOnUse" color-interpolation-filters="sRGB">
<feFlood flood-opacity="0" result="BackgroundImageFix"/>
<feColorMatrix in="SourceAlpha" type="matrix" values="0 0 0 0 0 0 0 0 0 0 0 0 0 0 0 0 0 0 127 0" result="hardAlpha"/>
<feOffset dy="4"/>
<feGaussianBlur stdDeviation="20.5"/>
<feComposite in2="hardAlpha" operator="out"/>
<feColorMatrix type="matrix" values="0 0 0 0 0 0 0 0 0 0 0 0 0 0 0 0 0 0 0.04 0"/>
<feBlend mode="normal" in2="BackgroundImageFix" result="effect1_dropShadow_779_1658"/>
<feBlend mode="normal" in="SourceGraphic" in2="effect1_dropShadow_779_1658" result="shape"/>
</filter>
<linearGradient id="paint0_linear_779_1658" x1="179.726" y1="451.22" x2="218.47" y2="-34.7995" gradientUnits="userSpaceOnUse">
<stop stop-color="#0258FF"/>
<stop offset="1" stop-color="#027FFF" stop-opacity="0.97"/>
</linearGradient>
<clipPath id="clip0_779_1658">
<rect width="44.268" height="38.7345" fill="white" transform="translate(194.166 122.086)"/>
</clipPath>
<clipPath id="clip1_779_1658">
<rect width="22.7882" height="18.7667" fill="white" transform="translate(192.289 272.756)"/>
</clipPath>
<clipPath id="clip2_779_1658">
<rect width="22.5201" height="17.6943" fill="white" transform="translate(427.41 142.997)"/>
</clipPath>
<clipPath id="clip3_779_1658">
<rect width="16.5147" height="16.5147" fill="white" transform="translate(448.107 311.683)"/>
</clipPath>
</defs>
</svg>
