<svg width="121" height="121" viewBox="0 0 121 121" fill="none" xmlns="http://www.w3.org/2000/svg">
<path d="M55.2099 3.84345C58.3643 1.55166 62.6357 1.55166 65.7901 3.84346L112.749 37.961C115.903 40.2528 117.223 44.3151 116.018 48.0233L98.0816 103.227C96.8768 106.935 93.4212 109.446 89.5221 109.446H31.4779C27.5788 109.446 24.1232 106.935 22.9184 103.227L4.9817 48.0233C3.77684 44.3151 5.09676 40.2528 8.25115 37.961L55.2099 3.84345Z" fill="#F6F9FF"/>
<path d="M59.7125 36.3632C59.9609 36.2547 60.229 36.1988 60.5 36.1988C60.771 36.1988 61.0391 36.2547 61.2875 36.3632C70.9949 40.6062 80.2546 45.8076 88.9287 51.89C89.2344 52.1044 89.4729 52.4013 89.6162 52.746C89.7596 53.0908 89.8019 53.4692 89.7384 53.8371C89.6748 54.205 89.5079 54.5473 89.2572 54.8239C89.0065 55.1006 88.6823 55.3003 88.3224 55.3997C79.317 57.8868 70.6033 61.3294 62.3296 65.6687L62.3217 65.6739L61.4292 66.1464C61.1437 66.299 60.825 66.3788 60.5013 66.3788C60.1776 66.3788 59.8589 66.299 59.5734 66.1464C56.0262 64.2507 52.3937 62.519 48.6875 60.9568V60.3688C48.6875 60.0249 48.8634 59.7178 49.139 59.5524C53.1011 57.1513 57.1773 54.9438 61.3531 52.9374C61.8237 52.7111 62.1852 52.3072 62.358 51.8144C62.5308 51.3216 62.5008 50.7804 62.2745 50.3098C62.0482 49.8392 61.6443 49.4777 61.1515 49.3049C60.6587 49.1321 60.1175 49.1621 59.6469 49.3884C55.3571 51.4498 51.1697 53.7178 47.0994 56.1845C46.5203 56.5358 46.0207 57.0039 45.6325 57.5589C45.2443 58.1138 44.9759 58.7436 44.8445 59.408C40.8577 57.874 36.7981 56.5362 32.6802 55.3997C32.3204 55.3003 31.9961 55.1006 31.7454 54.8239C31.4947 54.5473 31.3278 54.205 31.2643 53.8371C31.2007 53.4692 31.2431 53.0908 31.3864 52.746C31.5298 52.4013 31.7682 52.1044 32.0739 51.89C40.7473 45.8078 50.006 40.6064 59.7125 36.3632Z" fill="#027FFF"/>
<path d="M63.2825 69.6167C69.7302 66.1719 76.4629 63.2895 83.4058 61.0014C83.7575 64.7132 83.9833 68.4643 84.0751 72.2495C84.0848 72.6456 83.9747 73.0354 83.7592 73.3679C83.5438 73.7004 83.2331 73.9602 82.8676 74.1133C75.4265 77.2212 68.3018 81.038 61.592 85.511C61.2686 85.7266 60.8887 85.8416 60.5 85.8416C60.1113 85.8416 59.7314 85.7266 59.408 85.511C52.699 81.0382 45.5752 77.2213 38.135 74.1133C37.7691 73.9606 37.4578 73.701 37.2419 73.3685C37.0259 73.0359 36.9154 72.6459 36.9249 72.2495C37.0167 68.4643 37.2425 64.7158 37.5942 60.9988C40.0049 61.7934 42.3912 62.66 44.75 63.5975V66.9313C44.1828 67.2581 43.7061 67.7211 43.3629 68.2785C43.0196 68.8358 42.8208 69.47 42.7843 70.1236C42.7478 70.7771 42.8749 71.4295 43.1539 72.0216C43.433 72.6137 43.8552 73.1269 44.3825 73.5148C44.1462 74.5123 43.7997 75.4914 43.3404 76.4285C44.5269 76.9877 45.7055 77.5678 46.8736 78.1637C47.5322 76.8235 48.0182 75.4051 48.32 73.9427C48.9838 73.6475 49.553 73.1745 49.9647 72.5758C50.3763 71.9772 50.6143 71.2764 50.6524 70.5509C50.6904 69.8255 50.527 69.1036 50.1802 68.4652C49.8334 67.8268 49.3168 67.2969 48.6875 66.9339V65.2408C51.7538 66.5812 54.7662 68.0418 57.7175 69.6193C58.5737 70.0766 59.5294 70.3158 60.5 70.3158C61.4706 70.3158 62.4263 70.0766 63.2825 69.6193V69.6167Z" fill="#027FFF"/>
<path d="M40.7127 80.0878C41.8152 78.9879 42.6894 77.7515 43.3377 76.4285C44.5269 76.9877 45.7055 77.5678 46.8736 78.1637C46.0147 79.9082 44.8742 81.4992 43.4979 82.8729C43.3176 83.0663 43.1003 83.2215 42.8588 83.3291C42.6173 83.4367 42.3566 83.4945 42.0922 83.4992C41.8279 83.5039 41.5653 83.4552 41.3202 83.3562C41.075 83.2572 40.8523 83.1098 40.6654 82.9229C40.4784 82.7359 40.3311 82.5132 40.2321 82.2681C40.133 82.0229 40.0844 81.7604 40.0891 81.496C40.0937 81.2317 40.1516 80.971 40.2592 80.7295C40.3668 80.488 40.5219 80.2706 40.7154 80.0904L40.7127 80.0878Z" fill="#027FFF"/>
</svg>
