<svg width="54" height="54" viewBox="0 0 54 54" fill="none" xmlns="http://www.w3.org/2000/svg">
<rect width="54" height="54" rx="8" fill="#027FFF"/>
<path d="M37.0968 37.5199C39.0322 37.6763 40.9794 37.4297 42.8126 36.796C42.8826 35.9427 42.7069 35.0873 42.3058 34.3287C41.9048 33.57 41.2948 32.9392 40.5464 32.5092C39.7981 32.0792 38.9419 31.8675 38.077 31.8987C37.2121 31.9299 36.3738 32.2026 35.659 32.6854M37.0952 37.5183L37.0968 37.5652C37.0968 37.9052 37.0784 38.2407 37.0402 38.5717C34.2677 40.1451 31.1259 40.9705 27.9295 40.9655C24.614 40.9655 21.5017 40.095 18.8187 38.5717C18.7794 38.2219 18.7605 37.8702 18.7622 37.5183M37.0968 37.5183C37.0908 35.8055 36.5922 34.1298 35.659 32.6869M35.659 32.6869C34.8308 31.402 33.6882 30.3445 32.3372 29.6123C30.9861 28.88 29.4701 28.4967 27.9295 28.4977C26.3891 28.497 24.8734 28.8804 23.5226 29.6126C22.1718 30.3449 21.0295 31.4022 20.2014 32.6869M20.2014 32.6869C19.4867 32.2046 18.6485 31.9322 17.7839 31.9013C16.9192 31.8703 16.0634 32.0821 15.3153 32.512C14.5672 32.942 13.9574 33.5726 13.5564 34.331C13.1554 35.0893 12.9797 35.9445 13.0494 36.7975C14.8812 37.4348 16.8288 37.6804 18.7637 37.5183M20.1999 32.6869C19.2673 34.1299 18.7692 35.8057 18.7637 37.5183M32.5131 19.4303C32.5131 20.6327 32.0302 21.7859 31.1706 22.6361C30.311 23.4863 29.1451 23.964 27.9295 23.964C26.7138 23.964 25.5479 23.4863 24.6883 22.6361C23.8287 21.7859 23.3458 20.6327 23.3458 19.4303C23.3458 18.2279 23.8287 17.0747 24.6883 16.2244C25.5479 15.3742 26.7138 14.8965 27.9295 14.8965C29.1451 14.8965 30.311 15.3742 31.1706 16.2244C32.0302 17.0747 32.5131 18.2279 32.5131 19.4303V19.4303ZM41.6804 23.964C41.6804 24.4105 41.5915 24.8527 41.4187 25.2652C41.246 25.6778 40.9928 26.0526 40.6735 26.3684C40.3543 26.6841 39.9753 26.9346 39.5582 27.1055C39.1412 27.2763 38.6941 27.3643 38.2427 27.3643C37.7912 27.3643 37.3442 27.2763 36.9271 27.1055C36.51 26.9346 36.1311 26.6841 35.8118 26.3684C35.4926 26.0526 35.2394 25.6778 35.0666 25.2652C34.8939 24.8527 34.8049 24.4105 34.8049 23.964C34.8049 23.0622 35.1671 22.1973 35.8118 21.5596C36.4565 20.922 37.3309 20.5637 38.2427 20.5637C39.1544 20.5637 40.0288 20.922 40.6735 21.5596C41.3182 22.1973 41.6804 23.0622 41.6804 23.964V23.964ZM21.054 23.964C21.054 24.4105 20.9651 24.8527 20.7923 25.2652C20.6195 25.6778 20.3663 26.0526 20.0471 26.3684C19.7279 26.6841 19.3489 26.9346 18.9318 27.1055C18.5147 27.2763 18.0677 27.3643 17.6162 27.3643C17.1648 27.3643 16.7178 27.2763 16.3007 27.1055C15.8836 26.9346 15.5046 26.6841 15.1854 26.3684C14.8662 26.0526 14.613 25.6778 14.4402 25.2652C14.2674 24.8527 14.1785 24.4105 14.1785 23.964C14.1785 23.0622 14.5407 22.1973 15.1854 21.5596C15.8301 20.922 16.7045 20.5637 17.6162 20.5637C18.528 20.5637 19.4024 20.922 20.0471 21.5596C20.6918 22.1973 21.054 23.0622 21.054 23.964V23.964Z" stroke="white" stroke-width="1.5" stroke-linecap="round" stroke-linejoin="round"/>
</svg>
